<mxfile host="app.diagrams.net" modified="2022-11-23T16:33:26.326Z" agent="5.0 (Windows)" etag="NKnqb7fVhDe62IKUryI_" version="20.5.1" type="github">
  <diagram id="kgpKYQtTHZ0yAKxKKP6v" name="Page-1">
    <mxGraphModel dx="948" dy="515" grid="1" gridSize="10" guides="1" tooltips="1" connect="1" arrows="1" fold="1" page="1" pageScale="1" pageWidth="1100" pageHeight="850" math="0" shadow="0">
      <root>
        <mxCell id="0" />
        <mxCell id="1" parent="0" />
        <mxCell id="p5FWsi9fC2lH-8GudcwX-1" value="" style="html=1;points=[];perimeter=orthogonalPerimeter;" parent="1" vertex="1">
          <mxGeometry x="90" y="160" width="10" height="280" as="geometry" />
        </mxCell>
        <mxCell id="p5FWsi9fC2lH-8GudcwX-2" value="Requestor" style="shape=umlActor;verticalLabelPosition=bottom;verticalAlign=top;html=1;" parent="1" vertex="1">
          <mxGeometry x="80" y="60" width="30" height="60" as="geometry" />
        </mxCell>
        <mxCell id="p5FWsi9fC2lH-8GudcwX-3" value="Login Page" style="html=1;" parent="1" vertex="1">
          <mxGeometry x="170" y="65" width="110" height="50" as="geometry" />
        </mxCell>
        <mxCell id="p5FWsi9fC2lH-8GudcwX-4" value="" style="endArrow=none;dashed=1;html=1;rounded=0;entryX=0.5;entryY=1;entryDx=0;entryDy=0;" parent="1" target="p5FWsi9fC2lH-8GudcwX-3" edge="1">
          <mxGeometry width="50" height="50" relative="1" as="geometry">
            <mxPoint x="225" y="440" as="sourcePoint" />
            <mxPoint x="240" y="210" as="targetPoint" />
          </mxGeometry>
        </mxCell>
        <mxCell id="p5FWsi9fC2lH-8GudcwX-5" value="" style="html=1;points=[];perimeter=orthogonalPerimeter;" parent="1" vertex="1">
          <mxGeometry x="220" y="190" width="10" height="50" as="geometry" />
        </mxCell>
        <mxCell id="p5FWsi9fC2lH-8GudcwX-8" value="1: Input Username" style="html=1;verticalAlign=bottom;endArrow=block;rounded=0;exitX=1;exitY=0.107;exitDx=0;exitDy=0;exitPerimeter=0;" parent="1" source="p5FWsi9fC2lH-8GudcwX-1" edge="1">
          <mxGeometry width="80" relative="1" as="geometry">
            <mxPoint x="140" y="190" as="sourcePoint" />
            <mxPoint x="220" y="190" as="targetPoint" />
          </mxGeometry>
        </mxCell>
        <mxCell id="p5FWsi9fC2lH-8GudcwX-9" value="2 : Input Password" style="html=1;verticalAlign=bottom;endArrow=block;rounded=0;" parent="1" edge="1">
          <mxGeometry width="80" relative="1" as="geometry">
            <mxPoint x="100" y="230" as="sourcePoint" />
            <mxPoint x="220" y="230" as="targetPoint" />
          </mxGeometry>
        </mxCell>
        <mxCell id="p5FWsi9fC2lH-8GudcwX-10" value="Reimbursement&lt;br&gt;Main Page" style="html=1;" parent="1" vertex="1">
          <mxGeometry x="340" y="65" width="110" height="50" as="geometry" />
        </mxCell>
        <mxCell id="p5FWsi9fC2lH-8GudcwX-11" value="" style="endArrow=none;dashed=1;html=1;rounded=0;entryX=0.5;entryY=1;entryDx=0;entryDy=0;startArrow=none;" parent="1" source="p5FWsi9fC2lH-8GudcwX-13" edge="1">
          <mxGeometry width="50" height="50" relative="1" as="geometry">
            <mxPoint x="394.5" y="440" as="sourcePoint" />
            <mxPoint x="394.5" y="115" as="targetPoint" />
          </mxGeometry>
        </mxCell>
        <mxCell id="p5FWsi9fC2lH-8GudcwX-12" value="1.1 : Login" style="html=1;verticalAlign=bottom;endArrow=block;rounded=0;entryX=0;entryY=0.125;entryDx=0;entryDy=0;entryPerimeter=0;" parent="1" target="p5FWsi9fC2lH-8GudcwX-13" edge="1">
          <mxGeometry width="80" relative="1" as="geometry">
            <mxPoint x="230" y="200" as="sourcePoint" />
            <mxPoint x="310" y="200" as="targetPoint" />
          </mxGeometry>
        </mxCell>
        <mxCell id="p5FWsi9fC2lH-8GudcwX-13" value="" style="html=1;points=[];perimeter=orthogonalPerimeter;" parent="1" vertex="1">
          <mxGeometry x="390" y="190" width="10" height="80" as="geometry" />
        </mxCell>
        <mxCell id="p5FWsi9fC2lH-8GudcwX-14" value="" style="endArrow=none;dashed=1;html=1;rounded=0;entryX=0.5;entryY=1;entryDx=0;entryDy=0;startArrow=none;" parent="1" target="p5FWsi9fC2lH-8GudcwX-13" edge="1">
          <mxGeometry width="50" height="50" relative="1" as="geometry">
            <mxPoint x="395" y="320" as="sourcePoint" />
            <mxPoint x="394.5" y="115" as="targetPoint" />
          </mxGeometry>
        </mxCell>
        <mxCell id="p5FWsi9fC2lH-8GudcwX-15" value="" style="html=1;points=[];perimeter=orthogonalPerimeter;" parent="1" vertex="1">
          <mxGeometry x="220" y="260" width="10" height="20" as="geometry" />
        </mxCell>
        <mxCell id="p5FWsi9fC2lH-8GudcwX-17" value="&lt;div&gt;1.2 : Logout&lt;/div&gt;" style="html=1;verticalAlign=bottom;endArrow=open;dashed=1;endSize=8;rounded=0;exitX=-0.1;exitY=0.875;exitDx=0;exitDy=0;exitPerimeter=0;" parent="1" source="p5FWsi9fC2lH-8GudcwX-13" edge="1">
          <mxGeometry relative="1" as="geometry">
            <mxPoint x="310" y="260" as="sourcePoint" />
            <mxPoint x="230" y="260" as="targetPoint" />
          </mxGeometry>
        </mxCell>
        <mxCell id="p5FWsi9fC2lH-8GudcwX-19" value="Reimbursement" style="html=1;" parent="1" vertex="1">
          <mxGeometry x="562" y="65" width="110" height="50" as="geometry" />
        </mxCell>
        <mxCell id="p5FWsi9fC2lH-8GudcwX-20" value="" style="endArrow=none;dashed=1;html=1;rounded=0;entryX=0.5;entryY=1;entryDx=0;entryDy=0;startArrow=none;" parent="1" source="p5FWsi9fC2lH-8GudcwX-21" edge="1">
          <mxGeometry width="50" height="50" relative="1" as="geometry">
            <mxPoint x="616.5" y="440" as="sourcePoint" />
            <mxPoint x="616.5" y="115" as="targetPoint" />
          </mxGeometry>
        </mxCell>
        <mxCell id="p5FWsi9fC2lH-8GudcwX-21" value="" style="html=1;points=[];perimeter=orthogonalPerimeter;" parent="1" vertex="1">
          <mxGeometry x="612" y="200" width="10" height="70" as="geometry" />
        </mxCell>
        <mxCell id="p5FWsi9fC2lH-8GudcwX-22" value="" style="endArrow=none;dashed=1;html=1;rounded=0;entryX=0.5;entryY=1;entryDx=0;entryDy=0;startArrow=none;" parent="1" target="p5FWsi9fC2lH-8GudcwX-21" edge="1">
          <mxGeometry width="50" height="50" relative="1" as="geometry">
            <mxPoint x="617" y="330" as="sourcePoint" />
            <mxPoint x="564.5" y="115" as="targetPoint" />
          </mxGeometry>
        </mxCell>
        <mxCell id="p5FWsi9fC2lH-8GudcwX-23" value="&lt;div&gt;1.1.1 : Add Item&lt;/div&gt;" style="html=1;verticalAlign=bottom;endArrow=block;rounded=0;exitX=1.1;exitY=0.125;exitDx=0;exitDy=0;exitPerimeter=0;" parent="1" edge="1">
          <mxGeometry width="80" relative="1" as="geometry">
            <mxPoint x="401" y="204" as="sourcePoint" />
            <mxPoint x="610" y="204" as="targetPoint" />
          </mxGeometry>
        </mxCell>
        <mxCell id="p5FWsi9fC2lH-8GudcwX-24" value="&lt;div&gt;1.1.2 : Edit Item&lt;/div&gt;" style="html=1;verticalAlign=bottom;endArrow=block;rounded=0;exitX=1.1;exitY=0.125;exitDx=0;exitDy=0;exitPerimeter=0;" parent="1" edge="1">
          <mxGeometry width="80" relative="1" as="geometry">
            <mxPoint x="401" y="231" as="sourcePoint" />
            <mxPoint x="610" y="230" as="targetPoint" />
          </mxGeometry>
        </mxCell>
        <mxCell id="p5FWsi9fC2lH-8GudcwX-26" value="1.1.3 : Detail Reimburstment and Signature" style="html=1;verticalAlign=bottom;endArrow=block;rounded=0;exitX=1.1;exitY=0.125;exitDx=0;exitDy=0;exitPerimeter=0;" parent="1" edge="1">
          <mxGeometry width="80" relative="1" as="geometry">
            <mxPoint x="401" y="259" as="sourcePoint" />
            <mxPoint x="610" y="260" as="targetPoint" />
          </mxGeometry>
        </mxCell>
        <mxCell id="p5FWsi9fC2lH-8GudcwX-28" value="" style="endArrow=none;dashed=1;html=1;rounded=0;entryX=0.5;entryY=1;entryDx=0;entryDy=0;" parent="1" edge="1">
          <mxGeometry width="50" height="50" relative="1" as="geometry">
            <mxPoint x="394.5" y="440" as="sourcePoint" />
            <mxPoint x="395" y="320" as="targetPoint" />
          </mxGeometry>
        </mxCell>
        <mxCell id="p5FWsi9fC2lH-8GudcwX-30" value="" style="endArrow=none;dashed=1;html=1;rounded=0;entryX=0.5;entryY=1;entryDx=0;entryDy=0;" parent="1" edge="1">
          <mxGeometry width="50" height="50" relative="1" as="geometry">
            <mxPoint x="616.5" y="440" as="sourcePoint" />
            <mxPoint x="617" y="330" as="targetPoint" />
          </mxGeometry>
        </mxCell>
        <mxCell id="p5FWsi9fC2lH-8GudcwX-32" value="Email Notification" style="html=1;" parent="1" vertex="1">
          <mxGeometry x="760" y="65" width="110" height="50" as="geometry" />
        </mxCell>
        <mxCell id="p5FWsi9fC2lH-8GudcwX-34" value="" style="endArrow=none;dashed=1;html=1;rounded=0;entryX=0.5;entryY=1;entryDx=0;entryDy=0;" parent="1" edge="1">
          <mxGeometry width="50" height="50" relative="1" as="geometry">
            <mxPoint x="814.64" y="440" as="sourcePoint" />
            <mxPoint x="814.64" y="115" as="targetPoint" />
          </mxGeometry>
        </mxCell>
        <mxCell id="p5FWsi9fC2lH-8GudcwX-35" value="" style="html=1;points=[];perimeter=orthogonalPerimeter;" parent="1" vertex="1">
          <mxGeometry x="810" y="350" width="10" height="30" as="geometry" />
        </mxCell>
        <mxCell id="p5FWsi9fC2lH-8GudcwX-37" value="3 : Notification" style="html=1;verticalAlign=bottom;endArrow=open;dashed=1;endSize=8;rounded=0;entryX=1;entryY=0.693;entryDx=0;entryDy=0;entryPerimeter=0;" parent="1" edge="1">
          <mxGeometry relative="1" as="geometry">
            <mxPoint x="810" y="360" as="sourcePoint" />
            <mxPoint x="100" y="360.03999999999996" as="targetPoint" />
          </mxGeometry>
        </mxCell>
      </root>
    </mxGraphModel>
  </diagram>
</mxfile>
